<svg id="svg2" xmlns:rdf="http://www.w3.org/1999/02/22-rdf-syntax-ns#" xmlns="http://www.w3.org/2000/svg" viewBox="0 0 148.545 148.54498" height="41.9mm" width="41.9mm" version="1.1" xmlns:cc="http://creativecommons.org/ns#" xmlns:dc="http://purl.org/dc/elements/1.1/">
 <rect height="100%" width="100%" fill="#43a047"></rect>
 <g id="layer1" fill="#fff" transform="translate(-126 -231)">
  <g id="flowRoot3336" fill="#fff" transform="translate(-4.18 5.72)">
   <path id="path5527" d="m195 267q0 2.24-1.46 3.43t-4.17 1.19h-1.48v5.34h-2.33v-14.3h4.11q2.68 0 4 1.09 1.34 1.09 1.34 3.22zm-7.12 2.66h1.24q1.8 0 2.64-0.625t0.84-1.95q0-1.23-0.752-1.84-0.752-0.605-2.34-0.605h-1.62v5.02z"/>
   <path id="path5529" d="m209 263v9.24q0 1.58-0.684 2.77-0.674 1.18-1.96 1.83-1.28 0.635-3.07 0.635-2.66 0-4.13-1.41t-1.47-3.87v-9.2h2.34v9.03q0 1.77 0.82 2.61t2.52 0.84q3.3 0 3.3-3.47v-9.01h2.33z"/>
   <path id="path5531" d="m213 263h4.24q2.95 0 4.26 0.859 1.32 0.859 1.32 2.71 0 1.25-0.645 2.08t-1.86 1.04v0.0977q1.5 0.283 2.21 1.12 0.713 0.83 0.713 2.26 0 1.92-1.35 3.02-1.34 1.08-3.73 1.08h-5.16v-14.3zm2.33 5.9h2.25q1.46 0 2.14-0.459 0.674-0.469 0.674-1.58 0-1.01-0.732-1.46-0.723-0.449-2.3-0.449h-2.02v3.95zm0 1.89v4.52h2.48q1.46 0 2.21-0.557 0.752-0.566 0.752-1.78 0-1.11-0.762-1.65-0.762-0.537-2.31-0.537h-2.36z"/>
   <path id="path5533" d="m141 286h7.42q5.16 0 7.45 1.5 2.31 1.5 2.31 4.75 0 2.19-1.13 3.64t-3.25 1.83v0.171q2.63 0.496 3.86 1.97 1.25 1.45 1.25 3.95 0 3.37-2.36 5.28-2.34 1.9-6.53 1.9h-9.02v-25zm4.08 10.3h3.93q2.56 0 3.74-0.803 1.18-0.82 1.18-2.77 0-1.76-1.28-2.55-1.26-0.786-4.03-0.786h-3.54v6.9zm0 3.32v7.91h4.34q2.56 0 3.86-0.974 1.32-0.991 1.32-3.11 0-1.95-1.33-2.89t-4.05-0.94h-4.14z"/>
   <path id="path5535" d="m184 286v16.2q0 2.77-1.2 4.85-1.18 2.07-3.44 3.2-2.24 1.11-5.37 1.11-4.65 0-7.23-2.46t-2.58-6.77v-16.1h4.1v15.8q0 3.09 1.44 4.56t4.41 1.47q5.78 0 5.78-6.07v-15.8h4.08z"/>
   <path id="path5537" d="m197 297 5.91-11.4h4.44l-8.32 15.3v9.69h-4.1v-9.55l-8.29-15.4h4.44l5.91 11.4z"/>
   <path id="path5539" d="m211 311v-25h4.08v25h-4.08z"/>
   <path id="path5541" d="m242 311h-5.01l-12.3-19.9h-0.137l0.0854 1.11q0.239 3.18 0.239 5.81v13h-3.71v-25h4.96l12.3 19.8h0.103q-0.0342-0.393-0.137-2.85-0.103-2.48-0.103-3.86v-13.1h3.74v25z"/>
   <path id="path5543" d="m259 297h9.19v12.5q-2.26 0.735-4.34 1.04-2.07 0.308-4.48 0.308-5.67 0-8.75-3.35-3.08-3.37-3.08-9.48 0-6.03 3.47-9.43 3.47-3.42 9.55-3.42 3.91 0 7.42 1.5l-1.44 3.4q-3.04-1.4-6.08-1.4-4 0-6.32 2.51t-2.32 6.87q0 4.58 2.08 6.97 2.1 2.38 6.03 2.38 1.98 0 4.24-0.496v-6.44h-5.18v-3.5z"/>
   <path id="path5545" d="m186 323q-2.01 0-3.16 1.43t-1.15 3.94q0 2.63 1.1 3.97 1.11 1.35 3.21 1.35 0.908 0 1.76-0.176 0.85-0.186 1.77-0.469v2q-1.68 0.635-3.81 0.635-3.13 0-4.81-1.89-1.68-1.9-1.68-5.44 0-2.23 0.811-3.9 0.82-1.67 2.36-2.56 1.54-0.889 3.62-0.889 2.19 0 4.04 0.918l-0.84 1.94q-0.723-0.342-1.53-0.596-0.801-0.264-1.69-0.264z"/>
   <path id="path5547" d="m193 335v-14.3h2.33v12.3h6.04v2h-8.38z"/>
   <path id="path5549" d="m215 321v9.24q0 1.58-0.684 2.77-0.674 1.18-1.96 1.83-1.28 0.635-3.07 0.635-2.66 0-4.13-1.41t-1.47-3.87v-9.2h2.34v9.03q0 1.77 0.82 2.61t2.52 0.84q3.3 0 3.3-3.47v-9.01h2.33z"/>
   <path id="path5551" d="m219 321h4.24q2.95 0 4.26 0.859 1.32 0.859 1.32 2.71 0 1.25-0.645 2.08t-1.86 1.04v0.0977q1.5 0.283 2.21 1.12 0.713 0.83 0.713 2.26 0 1.92-1.35 3.02-1.34 1.08-3.73 1.08h-5.16v-14.3zm2.33 5.9h2.25q1.46 0 2.14-0.459 0.674-0.469 0.674-1.58 0-1.01-0.732-1.46-0.723-0.449-2.3-0.449h-2.02v3.95zm0 1.89v4.52h2.48q1.46 0 2.21-0.557 0.752-0.566 0.752-1.78 0-1.11-0.762-1.65-0.762-0.537-2.31-0.537h-2.36z"/>
  </g>
 </g>
</svg>
